<svg width="35" height="37" viewBox="0 0 35 37" fill="none" xmlns="http://www.w3.org/2000/svg">
<path d="M0 15.3076C0 6.85345 6.85345 0 15.3076 0V21.1456C15.3076 29.5997 8.45416 36.4532 0 36.4532V15.3076Z" fill="#4A3AFF"/>
<path d="M17.5286 8.31804C17.5286 3.72411 21.2527 0 25.8466 0C30.4405 0 34.1646 3.72411 34.1646 8.31803V8.79828C34.1646 13.3922 30.4405 17.1163 25.8466 17.1163C21.2527 17.1163 17.5286 13.3922 17.5286 8.79828V8.31804Z" fill="#4CBFFF"/>
<path d="M17.5286 27.6552C17.5286 23.0613 21.2527 19.3372 25.8466 19.3372C30.4405 19.3372 34.1646 23.0613 34.1646 27.6552V28.1354C34.1646 32.7294 30.4405 36.4535 25.8466 36.4535C21.2527 36.4535 17.5286 32.7294 17.5286 28.1354V27.6552Z" fill="#962DFF"/>
</svg>
